<?xml version="1.0" encoding="UTF-8" standalone="no"?>
<svg
   xmlns:dc="http://purl.org/dc/elements/1.1/"
   xmlns:cc="http://creativecommons.org/ns#"
   xmlns:rdf="http://www.w3.org/1999/02/22-rdf-syntax-ns#"
   xmlns:svg="http://www.w3.org/2000/svg"
   xmlns="http://www.w3.org/2000/svg"
   xmlns:xlink="http://www.w3.org/1999/xlink"
   xmlns:sodipodi="http://sodipodi.sourceforge.net/DTD/sodipodi-0.dtd"
   xmlns:inkscape="http://www.inkscape.org/namespaces/inkscape"
   width="455.10147"
   height="329.3299"
   viewBox="0 0 455.10147 329.3299"
   id="svg2"
   sodipodi:version="0.32"
   inkscape:version="0.92.4 (5da689c313, 2019-01-14)"
   sodipodi:docname="logo-cynagora.svg"
   inkscape:output_extension="org.inkscape.output.svg.inkscape"
   version="1.0">
  <title
     id="title36">logo cynagora</title>
  <metadata
     id="metadata28">
    <rdf:RDF>
      <cc:Work
         rdf:about="">
        <dc:format>image/svg+xml</dc:format>
        <dc:type
           rdf:resource="http://purl.org/dc/dcmitype/StillImage" />
        <dc:title>logo cynagora</dc:title>
        <dc:creator>
          <cc:Agent>
            <dc:title>manassas</dc:title>
          </cc:Agent>
        </dc:creator>
        <dc:rights>
          <cc:Agent>
            <dc:title>CC-BY-SA-3.0</dc:title>
          </cc:Agent>
        </dc:rights>
        <cc:license
           rdf:resource="https://creativecommons.org/licenses/by/3.0/legalcode" />
      </cc:Work>
    </rdf:RDF>
  </metadata>
  <sodipodi:namedview
     inkscape:window-height="1030"
     inkscape:window-width="1920"
     inkscape:pageshadow="2"
     inkscape:pageopacity="0.0"
     guidetolerance="10.0"
     gridtolerance="10.0"
     objecttolerance="10.0"
     borderopacity="1.0"
     bordercolor="#666666"
     pagecolor="#ffffff"
     id="base"
     showgrid="false"
     inkscape:zoom="1.1621212"
     inkscape:cx="-21.971415"
     inkscape:cy="10.060486"
     inkscape:window-x="0"
     inkscape:window-y="31"
     inkscape:current-layer="layer3"
     inkscape:object-nodes="true"
     inkscape:window-maximized="1"
     units="px"
     fit-margin-left="10"
     fit-margin-top="10"
     fit-margin-right="10"
     fit-margin-bottom="10" />
  <defs
     id="defs4">
    <radialGradient
       id="Gradient1"
       gradientUnits="userSpaceOnUse"
       cx="-80"
       cy="-80"
       r="405">
      <stop
         style="stop-color:#fff;stop-opacity:0.31"
         offset="0"
         id="stop7" />
      <stop
         style="stop-color:#fff;stop-opacity:0.25"
         offset="0.19"
         id="stop9" />
      <stop
         style="stop-color:#6b6b6b;stop-opacity:0.125"
         offset="0.6"
         id="stop11" />
      <stop
         style="stop-color:#000;stop-opacity:0.125"
         offset="1"
         id="stop13" />
    </radialGradient>
    <clipPath
       id="shield_cut">
      <path
         id="shield"
         d="m -298.5,-298.5 h 597 V -40 C 298.5,246.31 0,358.5 0,358.5 0,358.5 -298.5,246.31 -298.5,-40 Z"
         inkscape:connector-curvature="0" />
    </clipPath>
  </defs>
  <g
     id="layer3"
     inkscape:label="Meubles"
     inkscape:groupmode="layer"
     transform="translate(295.55141,286.25768)"
     style="display:inline">
    <g
       id="g2812"
       transform="matrix(1.2,0,0,1.2,-64.369068,-249.42963)">
      <g
         id="g2785"
         style="display:inline"
         transform="translate(312.90108,-208.54738)">
        <use
           x="0"
           y="0"
           xlink:href="#g7203"
           id="use7207"
           transform="matrix(-1,0,0,1,-631.85483,0)"
           width="790.90179"
           height="263.85583" />
        <g
           id="g7203">
          <path
             sodipodi:nodetypes="ccscsscscssccscscscscccscscscscssccscscsscscsc"
             transform="translate(-88.25002,180.09907)"
             id="path6220"
             d="m -407.97017,119.34668 c 13.40266,-6.28152 27.32225,-36.61553 7.57253,-23.664164 -6.23731,-9.961817 19.91836,-14.176768 20.50894,-23.348641 0.47011,-7.301018 -6.64604,-5.193023 -13.25193,-2.208655 5.49333,-14.876391 24.16173,-10.050136 32.9138,-15.55214 7.16879,-4.506671 24.49622,-9.824195 35.87003,4.193342 13.20236,16.271109 21.63396,2.019052 17.0382,-14.198498 4.33518,3.251046 10.45199,9.972656 5.6794,22.402074 -3.98463,10.377307 4.4447,14.024336 11.75793,9.419888 -12.12681,14.130385 -17.08751,30.844894 -14.91315,45.480974 1.00378,6.75666 10.50803,8.18487 11.3588,-1.57761 0.37951,-4.35483 -0.49254,-7.71233 -1.57761,-11.3588 8.81387,9.36877 11.40655,0.5486 13.81828,-7.97167 3.06729,6.93718 0.15731,14.76801 -4.0371,24.0633 -4.0926,9.06967 4.39246,13.74031 7.57254,2.20865 7.03612,13.02817 -11.46177,20.60907 -14.1985,37.23162 -2.81201,17.0798 23.90011,20.54483 12.93641,-5.6794 11.19315,2.90697 4.98512,14.36546 9.46566,16.40715 8.65761,3.9451 8.44082,-5.3551 5.15089,-12.32428 10.74465,0.8746 5.85719,18.24164 10.33656,27.85751 2.10714,4.5234 9.60174,11.64202 23.6373,8.13094 l 0.94657,8.5191 c -21.97133,-1.38793 -28.71669,16.94553 -39.12475,13.56745 7.40748,-3.12824 7.36985,-12.47857 -3.15522,-6.94149 -7.78719,4.09672 -15.22957,10.90199 -24.52712,4.28792 24.84074,-6.52967 11.30796,-11.95868 -1.03018,-7.44314 -5.49567,2.01132 -14.94643,-2.70324 -16.09163,-8.83462 13.56859,5.11734 18.09197,-9.0981 0.94657,-11.67432 -7.97644,-1.19852 -13.33401,-2.48171 -16.40716,-14.1985 11.85838,11.308 20.21592,3.85885 15.05011,-5.41232 -6.21659,-11.15702 -22.94956,-26.96782 -34.928,-25.19333 3.85603,-5.84402 15.84471,-0.21977 17.78911,-7.71868 0.70869,-2.73318 -0.9042,-5.90898 -13.3718,-12.79026 -6.99521,-3.86089 -6.46248,-8.80874 -4.73283,-13.56746 1.60936,4.484 12.1836,13.52954 11.04327,1.89314 7.07778,19.17341 23.10419,7.17351 8.20358,-4.73283 -7.04387,-5.62841 -12.95959,-11.82001 -13.88298,-21.771035 11.49664,18.129235 24.93083,2.762898 5.04836,-8.519098 -5.3837,-3.054898 -11.7029,-5.861788 -13.25193,-10.412232 23.33534,6.12382 14.51427,-14.032511 4.5664,-10.8902 -7.96654,2.516453 -13.04924,7.703963 -9.86559,15.056682 5.37874,12.422344 3.41226,13.519639 -0.38021,18.235592 0.57705,-13.177486 -15.64973,-17.801618 -10.72776,0.946567 2.9028,11.057014 0.94094,14.823914 -3.15522,17.669244 -0.75576,-17.664585 -2.27626,-13.877235 -6.62596,-5.04836 -7.58568,15.39716 -19.46579,14.27291 -29.97461,15.46059 z"
             style="opacity:1;fill:#5ab532;fill-opacity:1;fill-rule:nonzero;stroke:#000000;stroke-width:2;stroke-linecap:butt;stroke-linejoin:round;stroke-miterlimit:4;stroke-dasharray:none;stroke-dashoffset:0;stroke-opacity:1"
             inkscape:connector-curvature="0" />
          <path
             sodipodi:nodetypes="csccccscscccscscccccscscscccssscsccccscscscscscsssscscscscsccscssccssccsscsccsscscscscssc"
             id="path6222"
             transform="translate(-88.25002,180.09907)"
             d="m -344.3125,51.84375 c -0.54935,-0.0136 -1.10223,-0.0036 -1.65625,0.03125 -6.4114,0.403262 -12.86292,3.903189 -19.10304,9.915584 -1.62431,2.092139 -2.84322,2.32965 -5.37704,2.214687 -1.56326,-0.108289 -3.2432,-0.338175 -4.92617,-0.567771 -7.16323,-0.979447 -6.91775,0.89061 -8.8125,1.9375 2.37467,-1.121072 5.73828,-0.364885 8.53125,0.03125 2.74152,0.388839 4.40199,0.624632 6.53125,0.65625 -1.00791,1.163639 -2.00742,2.396895 -3,3.6875 -3.19299,4.151672 -5.56538,8.693382 -7.5625,13.21875 -1.01371,1.086042 -1.99987,2.100575 -3.3125,2.875 -3.79969,1.86299 -5.69361,2.455465 -8.3125,3.53125 4.30381,0.2026 7.20012,-0.5478 9.34375,-1.8125 0.15025,-0.08864 0.29481,-0.188671 0.4375,-0.28125 -0.83026,2.075131 -1.58474,4.125824 -2.34375,6.09375 -2.91634,7.56131 -10.76089,19.53134 -15.02109,22.6693 4.89786,-0.67727 13.01684,-13.23478 16.75873,-22.735113 1.07471,-2.786438 2.38756,-3.709705 3.60692,-6.591243 0.18588,1.010495 1.29163,1.105731 1.65544,1.907056 4.01362,4.167465 3.39989,2.165126 5.03125,3.15625 -1.30896,-1.15451 -2.42804,-2.29597 -3.1875,-3.96875 -0.63554,-1.399841 -1.58781,-3.805189 -1.48603,-6.361031 1.72386,-3.951356 5.66709,-9.948467 8.15876,-12.640669 1.35317,-1.462069 1.03996,-0.260723 2.26477,-1.6233 0.0198,0.726037 0.12892,1.441433 0.34375,2.125 0.83477,2.65621 2.76679,4.95532 4.5,7.21875 4.29058,4.439106 7.03323,6.88311 1.59375,-1.21875 -3.90633,-4.319735 -4.9968,-7.548005 -2.51236,-12.831086 6.08427,-6.007123 10.94827,-8.647885 16.55135,-9.000303 7.50059,-0.47177 14.44824,5.461989 20.55476,16.893889 0.008,0.01414 0.0237,0.01709 0.0312,0.03125 1.50488,3.76384 2.82659,7.48301 3.96875,11.1875 -1.91374,-1.728019 -4.20206,-3.205154 -6.53125,-4.46875 -4.78918,-2.59815 -5.21863,-2.436514 -7.65837,-3.133644 -3.27604,-0.905664 -6.3016,-1.560855 -9.14056,-2.029436 8.42982,2.849929 18.39283,5.45854 24.61143,14.13183 2.50167,9.062752 4.09478,17.89608 5.28125,26.40625 -1.809,-2.11707 -3.6201,-3.58434 -5.96101,-4.77753 -3.46412,-1.76571 -10.54282,-4.8899 -12.44524,-6.47247 3.5979,3.37056 7.6083,5.3979 11.15625,7.71875 3.12893,2.04675 5.86986,4.2813 7.8125,7.84375 0.41705,3.28849 0.80469,6.54451 1.15625,9.71875 0.55039,4.96948 1.04112,9.7861 1.625,14.4375 -2.33692,-2.67974 -5.39227,-5.40502 -8.90625,-7.4375 -6.62159,-3.82991 -11.68388,-5.65543 -17,-8.0625 3.31739,2.27259 9.91686,5.66189 15.875,9.71875 4.68298,3.18861 8.35373,6.81198 10.85691,13.26486 1.40138,9.81007 3.14497,15.75028 6.92434,23.57889 2.15385,4.4615 4.89056,8.2823 7.63894,11.88054 1.53151,2.00508 1.68293,2.53275 0.54217,2.4883 -2.07886,-0.081 -4.2734,-0.7947 -5.99361,-0.49384 -4.02344,0.70369 -11.21099,-0.24879 -17.22376,-0.54773 4.11104,1.34961 12.5643,2.43287 17.16126,2.54773 3.87322,0.0968 7.3139,0.70169 11.12992,2.45066 4.614,3.98813 10.27385,6.87789 15.90133,9.20559 2.54565,1.05296 5.17068,1.91311 7.875,2.65625 -3.14434,1.29063 -3.97311,2.0988 -4.93419,3.54934 l -4.25331,6.41941 c 2.3866,-1.71711 3.12366,-3.35073 4.53125,-4.78125 1.30453,-1.32579 3.31689,-2.71259 8.09375,-4.3125 3.51924,0.78815 7.16608,1.35513 10.875,1.6875 -0.90301,0.66342 -1.80214,1.29634 -2.25,2.15625 -1.38531,2.65987 -1.84883,4.617 -2.46875,6.46875 1.82188,-1.70613 2.76662,-3.63709 4.03125,-5.21875 1.03269,-1.29157 4.94453,-2.88374 7.1892,-3.04029 5.01396,-0.34969 7.54445,0.0158 12.84205,-0.45971 l -0.28125,-3 c -5.48288,0.49216 -10.86619,0.40158 -16.08355,0.29102 -2.55013,-0.054 -4.41979,-0.5591 -6.53238,-1.82288 -13.84365,-8.28145 -14.73279,-13.34795 -17.88407,-18.96814 2.76445,8.10569 8.38947,15.40286 14.6875,19.65625 -5.0102,-0.87969 -9.8033,-2.21028 -14.28125,-4.0625 -11.74425,-4.85778 -21.40159,-13.1713 -27.625,-26.0625 -1.97474,-4.09049 -2.98013,-6.37244 -4.12992,-11.20308 0.13036,-1.906 0.18408,-5.55432 0.97367,-6.85942 1.05279,-1.74014 2.63833,-3.25341 4.46875,-5.0625 7.93206,-8.59322 7.69563,-13.7829 8.5,-19.40625 -2.20077,10.10275 -6.28894,14.42485 -9.90625,18 -1.80866,1.78758 -3.53811,3.38273 -4.78125,5.4375 -0.24724,0.40866 -0.45554,0.83376 -0.65625,1.28125 -1.57919,-8.10905 -2.49745,-17.07118 -3.5625,-26.6875 -1.21785,-10.99598 -2.6434,-22.8309 -5.59375,-35.1875 0.18821,-3.140471 1.72798,-5.349396 3.625,-7.875 2.63058,-3.50224 5.92725,-7.48902 6.125,-14.40625 -0.9676,-0.583968 -2.46848,8.355225 -7.71875,13.21875 -1.41593,1.311626 -2.29331,3.162461 -3.0625,5 -1.54893,-5.855663 -3.45376,-11.813883 -5.875,-17.84375 -0.0174,-0.04325 -0.0406,-0.08388 -0.0625,-0.125 -6.02176,-11.292587 -13.69732,-16.952277 -21.9375,-17.15625 z"
             style="opacity:1;fill:#000000;fill-opacity:1;fill-rule:nonzero;stroke:none;stroke-width:3;stroke-linecap:butt;stroke-linejoin:round;stroke-miterlimit:4;stroke-dasharray:none;stroke-dashoffset:0;stroke-opacity:1"
             inkscape:connector-curvature="0" />
        </g>
      </g>
      <g
         transform="matrix(0.95,0,0,1.1875,291.87016,-215.5486)"
         id="g7182"
         style="display:inline">
        <path
           sodipodi:nodetypes="ccccccccccscccccccccccccccccccccccccccccccc"
           id="path7178"
           d="m -335.2323,217.04937 c -1.65393,-4.85683 -9.68688,-8.46438 -10.44461,-9.91239 4.16177,0.11899 10.06658,1.43793 9.10931,-0.29362 -5.20019,-2.89842 -9.49317,-4.22489 -15.60057,-8.69525 5.36955,0.17646 7.19501,0.98152 11.77448,1.13995 -1.79989,-1.97479 -4.4079,2.05409 -15.01839,-9.83314 5.23067,0.67572 8.50914,3.58996 11.31676,3.58028 -3.33893,-2.35089 -13.66206,-9.86681 -17.69156,-14.6608 4.30305,-0.71173 7.55972,3.43385 11.1785,1.60949 -0.0871,-0.62202 -8.47306,-4.18855 -9.35569,-6.6637 3.21385,0.31739 13.15471,5.64087 13.07193,4.84655 -0.25267,-2.42423 -5.59208,-5.5959 -6.57586,-8.0697 4.54344,1.40659 6.68786,3.69669 8.83881,5.97808 -0.10575,-1.05016 -1.58984,-7.22772 -1.30542,-9.14159 2.99078,1.41667 6.51976,5.0059 9.43785,7.61083 -0.53197,-3.53722 1.72402,-7.5455 2.52618,-9.04587 2.98495,1.98467 5.11835,4.15166 5.19927,8.27739 l 3.89946,-8.73723 c 2.38071,2.03968 5.2924,1.06183 8.05894,6.66786 -0.0643,-3.18023 1.93785,-5.14203 3.89945,-7.12771 l 4.15944,7.58758 c 1.04524,-4.12917 2.82008,-5.35825 2.85962,-7.58758 3.11726,2.40738 5.07778,4.02838 6.49914,6.43795 1.90356,-4.07457 5.73376,-5.14743 7.01904,-6.43795 2.4519,1.64092 1.25663,2.14576 4.15945,6.89779 0.0539,-3.0947 3.7023,-3.92988 5.19929,-4.82847 0.36948,2.17421 3.70214,3.49787 3.37957,6.20804 2.59964,-3.48896 5.71921,-4.97216 8.31886,-5.51825 0.007,2.29927 1.66914,5.9781 0,8.27736 2.07972,-2.12229 4.93934,-3.67407 7.01906,-4.36859 l -3.89947,6.208 c 5.77714,-2.92271 7.68243,-3.10584 10.13863,-3.6788 l -6.23916,5.97809 8.05891,-1.37957 -9.35873,8.73721 -5.19929,5.05841 9.35873,-2.5292 c -5.00814,6.28238 -7.51835,5.95904 -11.84966,9.2483 l 8.31886,-0.45987 -15.07795,8.73721 c 2.93876,-0.78191 3.1248,-0.57677 9.35871,-1.14961 -2.04535,1.88883 -14.30846,9.8822 -12.5073,19.49257 l -45.31365,0.0912"
           style="fill:#a228a4;fill-opacity:1;fill-rule:evenodd;stroke:#000000;stroke-width:1.88300467;stroke-linecap:butt;stroke-linejoin:miter;stroke-miterlimit:4;stroke-dasharray:none;stroke-opacity:1"
           inkscape:connector-curvature="0" />
        <path
           sodipodi:nodetypes="cccccccccccccccccccc"
           id="path7180"
           d="m -338.53136,194.26438 c -1.0968,0.33061 -5.59325,-8.50513 -5.05795,-9.45203 3.01817,3.98037 5.98928,7.01951 8.90785,7.83478 -0.54953,-4.88463 1.54865,-4.47309 0.45088,-7.37493 1.73047,1.63862 4.53021,3.10249 5.71355,4.3277 -0.70772,-1.98448 0.675,-3.17943 0.26564,-5.01748 1.67764,1.90996 3.94926,5.54017 4.93342,5.97551 -0.63332,-2.12979 1.28439,-3.09269 1.82567,-5.28571 l 3.11959,7.58756 c 1.2614,-2.14599 3.06347,-4.91847 4.93932,-7.06446 1.85364,2.2382 3.32586,6.51823 4.41942,8.67394 0,0 2.0797,-6.60459 3.37954,-7.98415 1.56044,2.16876 2.59965,7.5243 2.59965,7.5243 0,0 4.15944,-9.36372 6.49911,-10.05349 2.03514,2.91959 1.68191,5.7004 2.33971,7.98416 1.43163,-3.93544 5.64652,-6.28603 8.57886,-8.27736 0.98771,2.43728 2.51053,5.42388 1.81972,7.12771 2.0104,-1.94357 7.62442,-9.50747 7.79898,-8.9671 -0.48706,4.51751 -4.64154,9.01851 4.15942,3.21896 l -1.81974,4.13868"
           style="fill:none;stroke:#000000;stroke-width:1.88300467;stroke-linecap:butt;stroke-linejoin:miter;stroke-miterlimit:4;stroke-dasharray:none;stroke-opacity:1"
           inkscape:connector-curvature="0" />
      </g>
      <path
         id="path6200"
         d="m -22.770835,30.275865 c -4.29935,2.62931 -5.02504,6.8803 -5.72968,8.90625 -1.8143,-0.98755 -3.86462,-0.25355 -5.72969,-0.20781 7.35876,6.67835 3.53276,11.48481 4.86875,17.15937 -2.5159,-0.43565 -3.50665,0.03431 -4.66094,0.41563 9.44908,6.36191 4.4135,12.7603 10.39063,16.32812 l 23.30468019,8.04531 23.30468981,-8.04531 c 5.97713,-3.56782 0.94155,-9.96621 10.39063,-16.32812 -1.1543,-0.38132 -2.14505,-0.85128 -4.66094,-0.41563 1.33598,-5.67456 -2.49001,-10.48102 4.86875,-17.15937 -1.86506,-0.04574 -3.8857,-0.77974 -5.7,0.20781 -0.70464,-2.02595 -1.43034,-6.27694 -5.72969,-8.90625 -5.50924,3.76432 -6.61429,9.97462 -8.28281,14.22031 -1.1254,-4.33923 -2.57407,-11.35846 -7.4218798,-14.0125 -3.03943,2.17737 -5.53596001,7.21127 -6.76875001,14.0125 -1.23277999,-6.80123 -3.72931989,-11.83513 -6.76874989,-14.0125 -4.8478003,2.65404 -6.2964603,9.67327 -7.4218703,14.0125 -1.66852,-4.24569 -2.74388,-10.45599 -8.25313,-14.22031 z"
         style="display:inline;fill:#5ab532;fill-opacity:1;fill-rule:nonzero;stroke:#000000;stroke-width:2;stroke-linecap:butt;stroke-linejoin:round;stroke-miterlimit:4;stroke-dasharray:none;stroke-dashoffset:0;stroke-opacity:1"
         inkscape:connector-curvature="0" />
      <path
         sodipodi:nodetypes="cccc"
         id="path6202"
         d="m -29.351725,56.132635 c 10.77676,1.63323 10.39634,9.3522 15.47252,14.09484 0.79547,-3.88147 1.30451,-7.45415 7.3123703,-11.02153 4.7293999,2.93081 5.82611989,6.04368 6.24568989,9.53786"
         style="display:inline;fill:none;fill-opacity:1;fill-rule:nonzero;stroke:#000000;stroke-width:1.42499995;stroke-linecap:butt;stroke-linejoin:round;stroke-miterlimit:4;stroke-dasharray:none;stroke-dashoffset:0;stroke-opacity:1"
         inkscape:connector-curvature="0" />
      <path
         sodipodi:nodetypes="ccccc"
         id="path6204"
         d="m -28.503925,39.176435 c 7.1627,2.3841 6.74716,14.9275 8.0542,21.28608 0.8257,-4.20288 0.53546,-10.36042 5.93467,-15.95486 5.7826603,3.85589 6.5214003,9.7876 7.9482203,14.69829 0.58623,-4.92757 2.74937,-11.10128 6.24568989,-14.69829"
         style="display:inline;fill:none;fill-opacity:1;fill-rule:nonzero;stroke:#000000;stroke-width:1.42499995;stroke-linecap:butt;stroke-linejoin:round;stroke-miterlimit:4;stroke-dasharray:none;stroke-dashoffset:0;stroke-opacity:1"
         inkscape:connector-curvature="0" />
      <path
         style="display:inline;fill:none;fill-opacity:1;fill-rule:nonzero;stroke:#000000;stroke-width:1.42499995;stroke-linecap:butt;stroke-linejoin:round;stroke-miterlimit:4;stroke-dasharray:none;stroke-dashoffset:0;stroke-opacity:1"
         d="m 28.709445,56.132635 c -10.77677,1.63323 -10.39635,9.3522 -15.47253,14.09484 -0.79546,-3.88147 -1.30451,-7.45415 -7.3123698,-11.02153 -4.72939,2.93081 -5.62034001,6.24946 -6.24569001,9.53786"
         id="path6324"
         sodipodi:nodetypes="cccc"
         inkscape:connector-curvature="0" />
      <path
         style="display:inline;fill:none;fill-opacity:1;fill-rule:nonzero;stroke:#000000;stroke-width:1.42499995;stroke-linecap:butt;stroke-linejoin:round;stroke-miterlimit:4;stroke-dasharray:none;stroke-dashoffset:0;stroke-opacity:1"
         d="m 27.861635,39.176435 c -7.1627,2.3841 -6.74716,14.9275 -8.0542,21.28608 -0.8257,-4.20288 -0.53546,-10.36042 -5.93467,-15.95486 -5.7826598,3.85589 -6.5213998,9.7876 -7.9482198,14.69829 -0.58623,-4.92757 -2.74937,-11.10128 -6.24569001,-14.69829"
         id="path6326"
         sodipodi:nodetypes="ccccc"
         inkscape:connector-curvature="0" />
      <path
         id="path6361"
         d="m -14.515055,44.507655 v 7.39875"
         style="display:inline;fill:#5ab532;fill-opacity:1;fill-rule:nonzero;stroke:#000000;stroke-width:1.42499995;stroke-linecap:butt;stroke-linejoin:round;stroke-miterlimit:4;stroke-dasharray:none;stroke-dashoffset:0;stroke-opacity:1"
         inkscape:connector-curvature="0" />
      <path
         style="display:inline;fill:#5ab532;fill-opacity:1;fill-rule:nonzero;stroke:#000000;stroke-width:1.42499995;stroke-linecap:butt;stroke-linejoin:round;stroke-miterlimit:4;stroke-dasharray:none;stroke-dashoffset:0;stroke-opacity:1"
         d="m -0.32114481,44.507655 v 7.39875"
         id="path6363"
         inkscape:connector-curvature="0" />
      <path
         id="path6365"
         d="m 13.872765,44.507655 v 7.39875"
         style="display:inline;fill:#5ab532;fill-opacity:1;fill-rule:nonzero;stroke:#000000;stroke-width:1.42499995;stroke-linecap:butt;stroke-linejoin:round;stroke-miterlimit:4;stroke-dasharray:none;stroke-dashoffset:0;stroke-opacity:1"
         inkscape:connector-curvature="0" />
      <path
         style="display:inline;fill:#5ab532;fill-opacity:1;fill-rule:nonzero;stroke:#000000;stroke-width:1.42499995;stroke-linecap:butt;stroke-linejoin:round;stroke-miterlimit:4;stroke-dasharray:none;stroke-dashoffset:0;stroke-opacity:1"
         d="m 6.4416652,30.483685 v 7.39875"
         id="path6367"
         inkscape:connector-curvature="0" />
      <path
         id="path6369"
         d="m -7.0958347,30.483685 v 7.39875"
         style="display:inline;fill:#5ab532;fill-opacity:1;fill-rule:nonzero;stroke:#000000;stroke-width:1.42499995;stroke-linecap:butt;stroke-linejoin:round;stroke-miterlimit:4;stroke-dasharray:none;stroke-dashoffset:0;stroke-opacity:1"
         inkscape:connector-curvature="0" />
      <path
         style="display:inline;fill:#5ab532;fill-opacity:1;fill-rule:nonzero;stroke:#000000;stroke-width:1.42499995;stroke-linecap:butt;stroke-linejoin:round;stroke-miterlimit:4;stroke-dasharray:none;stroke-dashoffset:0;stroke-opacity:1"
         d="m -22.770835,30.275865 v 7.39876"
         id="path6371"
         inkscape:connector-curvature="0" />
      <path
         id="path6373"
         d="m 22.146355,30.275865 v 7.39876"
         style="display:inline;fill:#5ab532;fill-opacity:1;fill-rule:nonzero;stroke:#000000;stroke-width:1.42499995;stroke-linecap:butt;stroke-linejoin:round;stroke-miterlimit:4;stroke-dasharray:none;stroke-dashoffset:0;stroke-opacity:1"
         inkscape:connector-curvature="0" />
      <path
         sodipodi:nodetypes="cccccccssssssssccsscsscssccsccsssssssscc"
         id="path6198"
         d="m 27.703135,75.609845 c -8.48886,-0.54584 -16.12808,-2.41832 -21.0249498,2.84293 0.74554,-2.64103 3.2029,-3.34302 -0.35271,-10.28521 -7.01488001,4.32795 -4.12073,8.21232 -6.34606001,12.0081 -1.99971989,-4.37281 -1.31597999,-10.10892 -6.46790989,-11.24345 -3.00161,3.44274 -2.4714,5.67452 -2.01401,9.45239 -4.7945603,-4.42662 -10.8265103,-4.05481 -19.9944303,-3.69435 1.50502,4.62791 15.08823,1.25081 21.6657103,11.34052 2.68586,4.12005 4.1443,8.88047 4.21056,14.120725 0.03297,2.60811 -0.84371,3.27754 -2.91621,2.32 -1.7799,-0.82236 -3.57256,-3.057485 -8.3679503,-8.655275 -1.62044,-1.89159 -3.72475,0.55285 -3.19596,2.04984 1.72815,4.892375 3.2023,9.505065 8.8787703,14.284715 5.91797,4.98299 3.7756,6.9742 3.30044,9.8439 -2.97408,17.96168 -6.8779203,39.15939 -2.60095,67.70913 0.99278,6.62703 -2.14381,8.57692 -8.1419803,10.14334 -11.01772,2.69306 -44.90901,-1.80237 -43.78025,18.88257 1.48465,-0.0353 3.46928,1.58955 5.40103,-1.77891 4.64731,-8.10373 17.3438,-8.93142 25.38316,-9.2444 12.10557,-0.47129 13.81708,-0.49667 20.1198503,-3.51418 -9.8054103,8.33299 -32.7829403,9.03774 -28.6742703,23.56966 0.97507,3.44869 5.10205,-4.30189 9.76034,-6.11816 10.15613,-3.95987 23.9661103,-9.58024 25.4764103,-13.74984 -1.5453,8.35677 -14.5418703,23.89625 7.2693799,28.44309 2.21448,0.46161 1.40362,-1.44903 0.09188,-2.6145 -11.0192499,-9.79046 -2.70812,-15.65458 -0.29301,-20.72617 4.11539,8.73097 23.6930398,7.81278 37.4709898,11.61968 3.36853,-3.91731 -2.50058,-6.12617 -12.94333,-8.81607 -8.85335,-2.28051 -18.68968,-2.5564 -21.1743298,-11.59472 2.4857598,7.73644 41.1589298,0.1385 50.7536698,8.36237 0.07418,-12.8461 -15.64653,-9.85498 -26.49083,-10.88308 -12.77808,-1.21145 -26.7333298,-1.80719 -28.8293698,-8.95134 -4.90825,-16.72919 -4.18998001,-37.12683 -0.8038,-53.92856 0.57251,-2.84076 1.93359,-5.0107 5.44371,-7.21173 8.3258698,-5.22077 10.0848798,-11.84514 10.0990798,-19.83679 0.0062,-3.48634 -3.32541,-0.42807 -4.08857,1.19377 -2.15006,4.56925 -2.43058,4.62791 -4.7356498,7.07271 -1.46874,1.55778 -5.64518,2.39546 -5.47892,-0.80195 0.21905,-4.21289 2.85926,-23.399915 2.87346,-28.373525 2.10943,-14.21881 14.3666998,-6.45406 20.5170098,-13.23723 z"
         style="display:inline;fill:#5ab532;fill-opacity:1;stroke:#000000;stroke-width:2;stroke-linecap:butt;stroke-linejoin:miter;stroke-miterlimit:4;stroke-dasharray:none;stroke-opacity:1"
         inkscape:connector-curvature="0" />
    </g>
  </g>
</svg>
